# xmcd CD database file
#
# Track frame offsets:
#	150
#	11934
#	23558
#	35270
#	46402
#	59715
#	70898
#	82501
#	95564
#	108244
#	122096
#	137296
#	150161
#	160872
#	175282
#
# Disc length: 2504 seconds
#
# Revision: 0
# Processed by: cddbd v1.5.2PL0 Copyright (c) Steve Scherf et al.
# Submitted via: CDex 1.70beta2
#
DISCID=b109c60f
DTITLE=Johnny Bush and Justin Trevino - Texas On A Saturday Night
DYEAR=2007
DGENRE=Country
TTITLE0=Texas On A Saturday Night
TTITLE1=(Wine, Friend Of Mine) Stand By Me
TTITLE2=Shell Of A Man
TTITLE3=If She Could See Me Now
TTITLE4=That's What It's Like To Be Lonesome
TTITLE5=Jim, Jack and Rose
TTITLE6=Curtain In The WIndow
TTITLE7=Tonight I'll Break The Bottle Out
TTITLE8=The Part Where I Cry
TTITLE9=Wrong Side Of The World
TTITLE10=Pour The Wine
TTITLE11=Mr. Record Man
TTITLE12=Under The Influence Of Love
TTITLE13=I Threw Away The Rose
TTITLE14=Swinging Doors
EXTD=YEAR: 2007
EXTT0=
EXTT1=
EXTT2=
EXTT3=
EXTT4=
EXTT5=
EXTT6=
EXTT7=
EXTT8=
EXTT9=
EXTT10=
EXTT11=
EXTT12=
EXTT13=
EXTT14=
PLAYORDER=
